<svg width="2500" height="1968" viewBox="0 0 2500 1968" fill="none" xmlns="http://www.w3.org/2000/svg">
<path d="M729.395 1254.35L500.365 1352.73L712.474 1443.44L958.426 1352.73L729.395 1254.35ZM385.061 1377.33L377.387 1820.04L712.472 1967.61V1507.98L385.061 1377.33V1377.33ZM1073.73 1377.33L770.909 1492.63V1926.1L1073.73 1803.12V1377.33ZM1434.98 0L1204.37 98.3828L1418.06 189.089L1664.01 98.3828L1434.98 0V0ZM1115.24 130.7V573.412L1401.14 656.445L1410.38 253.674L1115.24 130.7V130.7ZM1754.72 155.293L1484.17 270.597V705.637L1754.72 582.661V155.293H1754.72ZM352.006 623.095L122.976 721.475L335.085 812.184L581.036 721.475L352.006 623.095V623.095ZM7.67419 746.07L0 1188.78L335.085 1336.36V876.72L7.67419 746.07ZM696.34 746.07L393.524 861.372V1294.84L696.34 1171.86V746.07ZM1089.86 606.762L860.831 705.143L1072.94 795.851L1318.89 705.143L1089.86 606.762ZM745.528 729.74L737.853 1172.45L1072.94 1320.02V860.438L745.528 729.74V729.74ZM1434.19 729.74L1131.38 845.042V1278.51L1434.19 1155.53V729.74ZM2155.67 0L1926.64 98.3805L2138.75 189.087L2384.7 98.3805L2155.67 0ZM1811.33 122.976L1803.66 565.688L2138.75 713.258V253.674L1811.33 122.976ZM2500 122.976L2197.18 238.277V671.742L2500 548.767V122.976Z" fill="white"/>
</svg>
