<svg width="2500" height="904" viewBox="0 0 2500 904" fill="none" xmlns="http://www.w3.org/2000/svg">
<path d="M16.2695 704.917V357.54H363.652V337.221H16.2695V20.3131H385.615V0H0V725.23H388.867V704.917H16.2744H16.2695ZM702.085 203.143L558.091 439.81L417.344 203.149H396.191L548.325 455.051L381.543 725.224H401.069L558.081 470.274L715.908 725.224H736.245L568.657 455.039L721.602 203.137H702.08L702.085 203.143ZM785.064 904V578.972H786.689C796.455 626.371 815.708 664.461 844.453 693.242C873.198 722.017 909.805 736.411 954.277 736.411C983.022 736.411 1008.52 729.132 1030.75 714.574C1052.99 700.015 1071.56 680.208 1086.48 655.152C1101.39 630.096 1112.78 600.98 1120.65 567.797C1128.51 534.621 1132.45 499.744 1132.45 463.184C1132.45 423.905 1128.37 387.674 1120.24 354.498C1112.1 321.315 1100.31 292.534 1084.85 268.161C1069.39 243.782 1050.68 224.816 1028.72 211.282C1006.75 197.736 981.938 190.963 954.277 190.963C933.125 190.963 913.467 194.858 895.298 202.643C877.129 210.434 860.996 221.432 846.895 235.655C832.71 249.987 820.364 266.942 810.283 285.932C799.98 305.233 792.114 326.393 786.689 349.419H785.064V203.143H768.794V904H785.064V904ZM954.277 717.104C903.301 717.104 862.349 695.266 831.436 651.592C800.522 607.918 785.064 545.107 785.064 463.172C785.064 429.312 788.862 397.148 796.455 366.678C804.048 336.209 815.029 309.458 829.399 286.438C843.774 263.412 861.538 245.129 882.686 231.589C903.838 218.043 927.705 211.27 954.277 211.27C981.397 211.27 1005.13 218.043 1025.46 231.589C1045.8 245.129 1062.62 263.583 1075.9 286.944C1089.19 310.305 1099.22 337.056 1106.01 367.184C1112.78 397.319 1116.17 429.312 1116.17 463.172C1116.17 493.647 1113.06 523.952 1106.82 554.081C1100.58 584.215 1090.95 611.301 1077.93 635.345C1064.92 659.377 1048.25 679.013 1027.91 694.254C1007.56 709.489 983.022 717.104 954.277 717.104V717.104ZM1221.93 725.23V429.654C1221.93 401.214 1225.19 373.445 1231.7 346.365C1238.2 319.279 1248.24 295.406 1261.8 274.757C1275.36 254.103 1292.57 237.85 1313.46 225.998C1334.34 214.147 1359.15 209.24 1387.9 211.27V190.957C1362.94 190.286 1341.12 193.663 1322.41 201.113C1303.69 208.563 1287.56 218.719 1274 231.589C1260.44 244.452 1249.59 259.516 1241.46 276.787C1233.33 294.031 1227.3 312.686 1223.56 332.142H1221.93V203.143H1205.66V725.236H1221.93V725.23ZM1408.23 468.25H1758.05C1759.14 432.361 1756.29 397.831 1749.51 364.648C1742.73 331.466 1731.88 302.008 1716.97 276.281C1702.06 250.549 1682.8 229.894 1659.21 214.318C1635.62 198.742 1607.55 190.957 1575.01 190.957C1551.68 190.957 1528.91 197.053 1506.67 209.246C1484.43 221.432 1464.91 239.203 1448.1 262.564C1431.28 285.926 1417.72 314.536 1407.42 348.401C1397.12 382.254 1391.96 420.851 1391.96 464.19C1391.96 502.786 1395.49 538.846 1402.54 572.364C1409.59 605.881 1420.43 635.004 1435.08 659.718C1449.73 684.433 1468.57 703.564 1491.62 717.104C1514.67 730.65 1542.47 737.081 1575.01 736.405C1622.73 736.405 1662.87 719.64 1695.41 686.128C1727.95 652.604 1747.21 605.375 1753.17 544.43H1736.9C1729.85 601.992 1711.82 645.16 1682.8 673.935C1653.78 702.716 1617.31 717.104 1573.38 717.104C1543.55 717.104 1518.33 710.672 1497.72 697.809C1477.11 684.945 1460.3 667.333 1447.28 644.99C1434.27 622.64 1424.64 596.402 1418.4 566.267C1412.16 536.139 1408.77 503.462 1408.23 468.25ZM1741.78 447.937H1408.24C1409.86 411.371 1415.28 378.53 1424.5 349.413C1433.73 320.291 1445.79 295.406 1460.71 274.757C1475.62 254.103 1492.98 238.362 1512.77 227.523C1532.57 216.689 1553.86 211.27 1576.64 211.27C1603.75 211.27 1627.61 217.537 1648.23 230.065C1668.83 242.593 1686.05 259.693 1699.89 281.36C1713.72 303.026 1724.16 328.253 1731.21 357.028C1738.26 385.809 1741.78 416.114 1741.78 447.937ZM2095.67 357.54H2111.94C2111.94 299.301 2098.38 256.98 2071.27 230.571C2044.15 204.161 2007.27 190.957 1960.63 190.957C1934.59 190.957 1912.63 195.023 1894.73 203.149C1876.83 211.27 1862.19 221.768 1850.8 234.631C1839.41 247.494 1831.27 261.717 1826.39 277.293C1821.51 292.87 1819.07 307.769 1819.07 321.986C1819.07 350.425 1823.13 373.11 1831.27 390.04C1839.41 406.969 1852.15 420.174 1869.51 429.654C1881.44 436.421 1895 442.517 1910.19 447.943C1925.37 453.356 1943 459.111 1963.07 465.202C1980.96 470.627 1998.59 476.041 2015.95 481.455C2033.3 486.874 2048.62 494.153 2061.91 503.292C2075.2 512.436 2086.04 524.117 2094.45 538.34C2102.86 552.557 2107.06 571.181 2107.06 594.201C2107.06 616.55 2102.86 635.51 2094.45 651.08C2086.12 666.575 2075.14 679.583 2062.32 689.176C2049.3 698.991 2034.79 706.1 2018.79 710.501C2002.79 714.903 1987.2 717.104 1972.02 717.104C1922.66 717.104 1884.83 703.393 1858.53 675.971C1832.22 648.544 1819.07 605.375 1819.07 546.46H1802.8C1802.8 612.149 1817.04 660.224 1845.51 690.7C1873.98 721.17 1916.15 736.405 1972.02 736.405C1989.91 736.405 2007.94 733.863 2026.12 728.784C2044.28 723.706 2060.56 715.415 2074.93 703.899C2089.17 692.546 2101.14 677.257 2109.91 659.213C2118.86 640.923 2123.34 618.58 2123.34 592.171C2123.34 567.115 2119.4 546.802 2111.54 531.225C2103.67 515.655 2093.37 502.786 2080.62 492.629C2067.88 482.473 2053.51 474.517 2037.5 468.762C2021.41 462.973 2005.28 457.384 1989.1 451.997C1969.18 445.474 1949.25 439.042 1929.3 432.702C1912.22 427.282 1896.36 420.851 1881.71 413.401C1867.61 405.951 1856.36 395.289 1847.95 381.407C1839.54 367.526 1835.34 347.719 1835.34 321.986C1835.34 317.249 1836.43 308.781 1838.59 296.594C1840.76 284.402 1845.92 272.044 1854.05 259.516C1862.19 246.994 1874.66 235.82 1891.47 225.998C1908.29 216.183 1931.34 211.27 1960.63 211.27C1980.69 211.27 1998.99 213.983 2015.54 219.396C2032.08 224.816 2046.32 233.448 2058.25 245.3C2070.18 257.151 2079.4 272.215 2085.91 290.498C2092.42 308.787 2095.67 331.13 2095.67 357.54V357.54ZM2472.34 357.54H2488.61C2488.61 299.301 2475.05 256.98 2447.93 230.571C2420.82 204.161 2383.94 190.957 2337.29 190.957C2311.26 190.957 2289.29 195.023 2271.4 203.149C2253.5 211.27 2238.85 221.768 2227.47 234.631C2216.07 247.494 2207.94 261.717 2203.06 277.293C2198.17 292.87 2195.74 307.769 2195.74 321.986C2195.74 350.425 2199.8 373.11 2207.94 390.04C2216.07 406.969 2228.82 420.174 2246.18 429.654C2258.11 436.421 2271.66 442.517 2286.85 447.943C2302.04 453.356 2319.66 459.111 2339.73 465.202C2357.63 470.627 2375.26 476.041 2392.61 481.455C2409.97 486.874 2425.29 494.153 2438.58 503.292C2451.87 512.436 2462.71 524.117 2471.12 538.34C2479.53 552.557 2483.73 571.181 2483.73 594.201C2483.73 616.55 2479.53 635.51 2471.12 651.08C2462.78 666.574 2451.81 679.582 2438.99 689.176C2425.97 698.991 2411.46 706.1 2395.46 710.501C2379.46 714.903 2363.87 717.104 2348.68 717.104C2299.33 717.104 2261.5 703.393 2235.2 675.971C2208.89 648.544 2195.74 605.375 2195.74 546.46H2179.47C2179.47 612.149 2193.7 660.224 2222.18 690.7C2250.65 721.17 2292.82 736.405 2348.68 736.405C2366.58 736.405 2384.61 733.863 2402.78 728.784C2420.95 723.706 2437.22 715.415 2451.6 703.899C2465.84 692.546 2477.81 677.257 2486.58 659.213C2495.53 640.923 2500 618.58 2500 592.171C2500 567.115 2496.07 546.802 2488.2 531.225C2480.34 515.655 2470.04 502.786 2457.29 492.629C2444.55 482.473 2430.17 474.517 2414.17 468.762C2398.08 462.973 2381.95 457.384 2365.77 451.997C2345.85 445.474 2325.92 439.042 2305.97 432.702C2288.89 427.282 2273.02 420.851 2258.38 413.401C2244.28 405.951 2233.02 395.289 2224.62 381.407C2216.21 367.526 2212.01 347.719 2212.01 321.986C2212.01 317.249 2213.09 308.781 2215.26 296.594C2217.43 284.402 2222.59 272.044 2230.72 259.516C2238.85 246.994 2251.33 235.82 2268.14 225.998C2284.96 216.183 2308 211.27 2337.29 211.27C2357.36 211.27 2375.66 213.983 2392.21 219.396C2408.75 224.816 2422.98 233.448 2434.92 245.3C2446.85 257.151 2456.07 272.215 2462.58 290.498C2469.09 308.787 2472.34 331.13 2472.34 357.54H2472.34Z" fill="white"/>
</svg>
