<svg width="1667" height="2480" viewBox="0 0 1667 2480" fill="none" xmlns="http://www.w3.org/2000/svg">
<path d="M416.834 2480C646.834 2480 833.5 2293.33 833.5 2063.33V1646.67H416.834C186.834 1646.67 0.166931 1833.33 0.166931 2063.33C0.166931 2293.33 186.834 2480 416.834 2480Z" fill="white"/>
<path d="M0.166504 1250C0.166504 1020 186.833 833.333 416.833 833.333H833.5V1666.67H416.833C186.833 1666.67 0.166504 1480 0.166504 1250Z" fill="white"/>
<path d="M0.166504 416.667C0.166504 186.667 186.833 0 416.833 0H833.5V833.333H416.833C186.833 833.333 0.166504 646.667 0.166504 416.667Z" fill="white"/>
<path d="M833.5 0H1250.17C1480.17 0 1666.83 186.667 1666.83 416.667C1666.83 646.667 1480.17 833.333 1250.17 833.333H833.5V0Z" fill="white"/>
<path d="M1666.83 1250C1666.83 1480 1480.17 1666.67 1250.17 1666.67C1020.17 1666.67 833.5 1480 833.5 1250C833.5 1020 1020.17 833.333 1250.17 833.333C1480.17 833.333 1666.83 1020 1666.83 1250Z" fill="white"/>
</svg>
