<svg width="2500" height="2461" viewBox="0 0 2500 2461" fill="none" xmlns="http://www.w3.org/2000/svg">
<path d="M2301.25 1896.6C2165.33 1893.21 2059.99 1906.81 1971.64 1944.18C1946.15 1954.37 1905.37 1954.38 1901.97 1986.66C1915.57 2000.25 1917.27 2022.34 1929.16 2041.03C1949.57 2075 1985.22 2120.88 2017.51 2144.68C2053.18 2171.86 2088.88 2199.03 2126.24 2222.82C2192.51 2263.6 2267.28 2287.38 2331.84 2328.16C2369.23 2351.93 2406.58 2382.54 2443.96 2408.02C2462.66 2421.59 2474.54 2443.7 2498.34 2452.19V2447.1C2486.44 2431.8 2483.04 2409.72 2471.15 2392.72C2454.18 2375.73 2437.17 2360.44 2420.18 2343.45C2370.91 2277.2 2309.75 2219.42 2243.49 2171.86C2189.12 2134.47 2070.18 2083.51 2048.1 2020.63C2048.1 2020.63 2046.39 2018.95 2044.7 2017.25C2082.07 2013.85 2126.24 2000.25 2161.93 1990.06C2219.7 1974.76 2272.36 1978.16 2331.84 1962.87C2359.01 1956.07 2386.2 1947.58 2413.38 1939.08V1923.8C2382.81 1893.21 2360.72 1852.44 2328.44 1823.55C2241.79 1748.78 2146.63 1675.73 2048.1 1614.57C1995.42 1580.59 1927.45 1558.5 1871.39 1529.62C1851.02 1519.41 1817.02 1514.33 1805.14 1497.33C1774.54 1459.96 1757.55 1410.69 1735.47 1366.51C1686.21 1273.06 1638.62 1169.42 1596.14 1070.89C1565.58 1004.62 1546.88 938.35 1509.5 877.197C1334.5 588.36 1144.21 413.36 851.982 241.748C789.111 206.074 714.355 190.781 634.502 172.1C592.041 170.391 549.551 167.002 507.08 165.293C479.892 153.399 452.705 121.123 428.916 105.83C332.09 44.6584 82.3143 -87.8514 10.9569 87.1486C-34.922 197.578 78.9256 306.309 117.988 362.393C146.894 401.465 184.258 445.635 204.648 489.815C216.543 518.682 219.931 549.287 231.826 579.863C259.023 654.6 284.492 737.871 320.185 807.539C338.877 843.213 359.258 880.586 383.047 912.871C396.64 931.553 420.42 940.059 425.527 970.635C401.748 1004.62 400.039 1055.6 386.435 1098.07C325.273 1290.06 349.072 1527.92 435.713 1668.94C462.89 1711.4 527.461 1804.87 614.111 1769.18C690.576 1738.6 673.584 1641.76 695.654 1556.81C700.771 1536.4 697.373 1522.82 707.558 1509.23V1512.64C731.348 1560.2 755.127 1606.08 777.217 1653.65C829.892 1736.89 921.631 1823.55 998.086 1881.33C1038.88 1911.89 1071.15 1964.57 1122.13 1983.26V1978.15H1118.72C1108.53 1962.86 1093.23 1956.07 1079.65 1944.17C1049.07 1913.6 1015.08 1876.22 991.299 1842.24C919.951 1747.08 857.07 1641.75 801.006 1533.01C773.828 1480.35 750.029 1422.58 727.949 1369.91C717.744 1349.5 717.744 1318.94 700.762 1308.75C675.273 1346.12 637.9 1378.41 619.209 1424.28C586.943 1497.33 583.535 1587.38 571.64 1680.82C564.844 1682.54 568.232 1680.82 564.834 1684.24C510.478 1670.63 491.787 1614.57 471.387 1566.99C420.41 1446.37 411.914 1252.68 456.103 1113.36C467.998 1077.68 518.974 965.547 498.584 931.563C488.389 899.278 454.394 880.586 435.713 855.108C413.633 822.823 389.834 782.061 374.551 746.367C333.769 651.221 313.379 545.879 269.209 450.733C248.818 406.553 213.154 360.694 184.258 319.912C151.982 274.043 116.299 241.748 90.8104 187.383C82.3241 168.701 70.4198 138.115 84.0135 117.725C87.4119 104.131 94.1991 99.0432 107.803 95.6447C129.892 76.9436 192.764 100.733 214.834 110.928C277.705 136.397 330.371 160.205 383.047 195.879C406.826 212.871 432.314 245.156 462.89 253.653H498.574C552.949 265.537 614.101 257.051 665.078 272.334C755.137 301.211 836.679 343.692 909.746 389.57C1132.32 530.586 1315.8 731.074 1439.84 970.635C1460.23 1009.7 1468.72 1045.4 1487.41 1086.16C1523.11 1169.42 1567.28 1254.38 1602.94 1335.93C1638.62 1415.77 1672.6 1497.33 1723.57 1563.6C1749.06 1599.27 1851 1617.97 1896.87 1636.66C1930.86 1651.94 1983.53 1665.55 2014.11 1684.23C2071.87 1719.89 2129.64 1760.69 2184.01 1799.76C2211.2 1820.15 2296.14 1862.63 2301.25 1896.6V1896.6Z" fill="white"/>
<path d="M568.223 420.137C539.346 420.137 518.965 423.555 498.574 428.643V432.041H501.973C515.576 459.229 539.346 477.92 556.328 501.699C569.932 528.877 581.816 556.074 595.42 583.262C597.109 581.553 598.809 579.863 598.809 579.863C622.607 562.861 634.492 535.684 634.492 494.902C624.297 483.018 622.598 471.123 614.102 459.229C603.916 442.227 581.816 433.74 568.223 420.137V420.137Z" fill="white"/>
</svg>
