<svg width="2500" height="2500" viewBox="0 0 2500 2500" fill="none" xmlns="http://www.w3.org/2000/svg">
<path d="M0 1250C0 904.947 122.07 610.351 366.213 366.211C610.351 122.07 904.947 0 1250 0C1595.05 0 1889.65 122.07 2133.79 366.211C2377.93 610.351 2500 904.947 2500 1250C2500 1595.05 2377.93 1889.65 2133.79 2133.79C1889.65 2377.93 1595.05 2500 1250 2500C904.947 2500 610.351 2377.93 366.213 2133.79C122.07 1889.65 0 1595.05 0 1250ZM136.719 1250C136.719 1555.99 245.768 1818.03 463.867 2036.13C681.966 2254.23 944.009 2363.28 1250 2363.28C1555.99 2363.28 1818.03 2254.23 2036.13 2036.13C2254.23 1818.03 2363.28 1555.99 2363.28 1250C2363.28 944.009 2254.23 681.966 2036.13 463.867C1818.03 245.768 1555.99 136.719 1250 136.719C944.009 136.719 681.968 245.768 463.867 463.867C245.768 681.966 136.719 944.009 136.719 1250ZM488.283 1518.55C481.773 1512.04 481.773 1505.53 488.283 1499.02C501.302 1486 517.58 1481.12 537.109 1484.37C556.64 1487.63 568.033 1490.88 571.289 1494.14C594.075 1503.9 619.304 1525.88 646.971 1560.06C674.638 1594.24 696.611 1617.84 712.89 1630.86C791.015 1695.96 870.765 1700.84 952.145 1645.51C958.655 1622.72 969.236 1603.19 983.882 1586.91C998.528 1570.63 1012.37 1559.24 1025.39 1552.73C1038.41 1546.22 1061.2 1536.45 1093.75 1523.43C986.325 1513.67 899.249 1494.95 832.517 1467.28C765.786 1439.61 712.887 1404.62 673.825 1362.3C621.742 1303.71 590.002 1227.21 578.609 1132.81C567.213 1038.41 574.539 952.145 600.583 874.02C620.114 825.192 647.783 781.249 683.588 742.184C657.546 660.804 662.429 568.031 698.237 463.864C802.403 470.375 896.804 506.182 981.439 571.286C1144.2 528.968 1313.47 527.341 1489.25 566.403C1512.04 550.127 1547.03 529.783 1594.23 505.367C1641.43 480.953 1700.84 467.117 1772.45 463.862C1785.47 499.669 1794.43 541.987 1799.31 590.815C1804.19 639.643 1801.75 685.216 1791.99 727.533C1866.85 805.658 1905.92 909.825 1909.17 1040.03C1909.17 1144.2 1891.27 1230.46 1855.46 1298.82C1819.65 1367.18 1756.18 1424.15 1665.03 1469.72C1603.18 1499.02 1521.8 1516.92 1420.89 1523.43C1466.47 1546.22 1499.83 1569.82 1520.99 1594.23C1542.15 1618.64 1555.99 1656.89 1562.5 1708.98V1862.79L1567.38 2011.71C1577.14 2027.99 1588.54 2041.82 1601.56 2053.22C1614.58 2064.61 1625.97 2072.75 1635.74 2077.63C1645.5 2082.52 1648.76 2089.84 1645.5 2099.61C1642.25 2109.37 1629.23 2114.26 1606.44 2114.26C1551.1 2114.26 1507.16 2094.72 1474.61 2055.66C1464.84 2039.38 1459.96 2019.85 1459.96 1997.07V1762.69C1459.96 1736.65 1453.45 1717.93 1440.43 1706.54C1427.41 1695.14 1414.39 1687.82 1401.37 1684.56V1992.18C1401.37 2047.52 1407.88 2083.33 1420.9 2099.6C1433.92 2115.88 1442.06 2132.16 1445.31 2148.43C1448.57 2151.69 1446.13 2154.13 1437.99 2155.75C1429.85 2157.38 1416.02 2154.94 1396.48 2148.43C1354.17 2138.66 1324.87 2116.69 1308.59 2082.51C1292.32 2048.33 1284.18 2011.71 1284.18 1972.65V1669.92H1220.7V1972.65C1220.7 2011.72 1212.56 2049.15 1196.29 2084.96C1173.5 2130.53 1131.18 2154.95 1069.33 2158.2C1059.57 2154.95 1054.69 2151.69 1054.69 2148.44C1057.94 2145.18 1067.71 2128.91 1083.98 2099.61C1087.24 2093.1 1091.31 2080.08 1096.19 2060.55C1101.08 2041.02 1103.52 2018.23 1103.52 1992.19V1684.57C1090.5 1687.82 1078.29 1695.15 1066.89 1706.54C1055.5 1717.94 1049.8 1736.65 1049.8 1762.7V1997.07C1049.8 2019.85 1044.92 2039.39 1035.16 2055.66C1005.86 2094.73 961.913 2114.26 903.322 2114.26C880.536 2114.26 867.515 2109.38 864.26 2099.61C861.002 2093.1 861.817 2087.4 866.702 2082.52C871.587 2077.64 878.91 2071.94 888.676 2065.43C898.442 2058.92 904.952 2054.03 908.207 2050.78C921.228 2041.02 930.991 2028 937.504 2011.72C947.27 1998.7 949.71 1964.52 944.827 1909.18C939.944 1853.84 939.129 1818.03 942.384 1801.76C857.747 1831.06 771.486 1816.4 683.593 1757.81C657.551 1731.77 631.51 1694.33 605.468 1645.51C585.937 1609.7 546.874 1567.38 488.283 1518.55Z" fill="white"/>
</svg>
