<svg width="2500" height="2500" viewBox="0 0 2500 2500" fill="none" xmlns="http://www.w3.org/2000/svg">
<path d="M2169.6 635.735C2051.25 482.468 1890.09 367.744 1706.53 306.071C1522.96 244.398 1325.23 238.547 1138.34 289.258C951.453 339.969 783.799 444.963 656.584 590.963C529.369 736.962 448.308 917.409 423.653 1109.48C398.998 1301.55 431.856 1496.62 518.072 1670.02C604.287 1843.41 739.988 1987.35 908.011 2083.62C1076.03 2179.89 1268.83 2224.17 1462.02 2210.86C1655.21 2197.54 1840.12 2127.24 1993.35 2008.84C2421.07 1678.29 2500 1063.61 2169.57 635.735H2169.6Z" fill="white"/>
<path d="M1724.94 878.904L1312.12 1295L1195.46 1175.06C1601.76 768.762 1642.55 805.476 1724.97 878.904H1724.94Z" fill="#808080"/>
<path d="M1312.12 1306.38C1308.46 1306.29 1304.97 1304.84 1302.33 1302.31L1184.84 1184.82C1182.2 1182.08 1180.72 1178.43 1180.72 1174.62C1180.72 1170.81 1182.2 1167.15 1184.84 1164.42C1585.42 763.836 1640.1 782.591 1734.73 868.257C1736.31 869.525 1737.58 871.144 1738.43 872.987C1739.28 874.83 1739.69 876.845 1739.62 878.873C1740.23 882.851 1738.71 886.92 1735.55 889.49L1322.74 1302.34C1319.84 1304.99 1316.05 1306.45 1312.12 1306.41V1306.38ZM1215.84 1175.03L1312.12 1271.32L1703.74 879.699C1690.21 862.754 1670.92 851.388 1649.54 847.776C1628.17 844.163 1606.21 848.558 1587.87 860.118C1516.89 891.937 1402.68 989.015 1215.84 1175.03V1175.03Z" fill="white"/>
<path d="M1430.43 1410.03L1317.84 1295L1730.66 887.042C1841.63 995.562 1676.81 1176.68 1430.43 1410V1410.03Z" fill="#808080"/>
<path d="M1430.43 1424.72C1426.82 1424.43 1423.39 1423.01 1420.64 1420.65L1305.6 1308.06C1303.88 1303.88 1303.88 1299.18 1305.6 1295C1304.38 1291.56 1304.38 1287.81 1305.6 1284.38L1718.42 871.561C1721.29 868.864 1725.08 867.362 1729.02 867.362C1732.96 867.362 1736.75 868.864 1739.62 871.561C1752.99 883.866 1763.55 898.905 1770.59 915.657C1777.63 932.408 1780.98 950.478 1780.41 968.639C1780.41 1078.78 1654.75 1217.47 1441.02 1419.82C1438.16 1422.65 1434.4 1424.38 1430.4 1424.72H1430.43ZM1339.04 1295L1431.23 1387.15C1594.39 1232.95 1750.24 1073.86 1751.03 966.161C1751.92 943.33 1744.38 920.972 1729.83 903.349L1339.04 1295Z" fill="white"/>
<path d="M1198.7 1177.51L1280.3 1259.11C1280.82 1259.57 1281.24 1260.13 1281.52 1260.76C1281.81 1261.4 1281.96 1262.08 1281.96 1262.78C1281.96 1263.47 1281.81 1264.16 1281.52 1264.79C1281.24 1265.43 1280.82 1265.99 1280.3 1266.45L1108.14 1303.16C1104.67 1303.91 1101.04 1303.51 1097.82 1302.01C1094.6 1300.51 1091.95 1297.99 1090.29 1294.85C1088.63 1291.71 1088.04 1288.11 1088.61 1284.6C1089.18 1281.09 1090.88 1277.87 1093.46 1275.41L1193.81 1175.89C1193.81 1175.89 1197.08 1175.89 1198.7 1177.51Z" fill="#808080"/>
<path d="M1104.07 1319.47C1098.63 1319.4 1093.3 1317.94 1088.59 1315.23C1083.88 1312.51 1079.94 1308.63 1077.15 1303.96C1074.01 1298.04 1072.87 1291.27 1073.91 1284.65C1074.94 1278.03 1078.08 1271.93 1082.87 1267.25L1182.4 1166.89C1185.99 1163.69 1190.63 1161.91 1195.45 1161.91C1200.26 1161.91 1204.9 1163.69 1208.49 1166.89L1290.09 1248.49C1294.93 1253.08 1296.82 1260.03 1294.99 1266.45C1293.15 1272.88 1287.77 1277.98 1281.13 1279.51L1108.97 1316.23L1104.07 1319.47ZM1195.46 1195.47L1103.28 1287.65L1255.86 1255.01L1195.46 1195.47Z" fill="white"/>
<path d="M1944.43 649.625C1885.38 592.657 1792.61 590.271 1730.69 644.026C1668.76 697.782 1658.18 790.056 1706.4 856.447C1754.61 922.838 1845.51 941.44 1915.88 899.28L1804.91 788.312L1944.43 649.625Z" fill="#808080"/>
<path d="M1834.28 936.789C1800.36 936.354 1767.31 925.946 1739.26 906.861C1711.21 887.776 1689.4 860.858 1676.54 829.462C1663.69 798.09 1660.31 763.638 1666.84 730.369C1673.37 697.101 1689.5 666.475 1713.25 642.282C1745.91 610.217 1789.86 592.253 1835.63 592.253C1881.4 592.253 1925.35 610.217 1958.01 642.282C1961.13 644.913 1962.91 648.799 1962.91 652.898C1962.9 654.915 1962.46 656.907 1961.61 658.739C1960.77 660.571 1959.54 662.199 1958.01 663.515L1825.84 788.342L1926.19 887.072C1927.82 888.625 1929.04 890.552 1929.75 892.685C1930.46 894.819 1930.63 897.093 1930.26 899.31C1930.02 901.449 1929.31 903.509 1928.18 905.344C1927.06 907.178 1925.54 908.743 1923.74 909.927C1896.78 926.778 1865.79 936.077 1834.01 936.85L1834.28 936.789ZM1834.28 620.223C1776.15 620.529 1724.14 655.499 1702.33 708.948C1680.51 762.398 1692.38 823.924 1733.14 864.983C1753.41 885.371 1779.36 899.162 1807.6 904.55C1835.84 909.938 1865.05 906.672 1891.4 895.18L1795.12 798.898C1793.59 797.674 1792.36 796.121 1791.51 794.355C1790.66 792.589 1790.22 790.654 1790.22 788.694C1790.22 786.734 1790.66 784.8 1791.51 783.033C1792.36 781.267 1793.59 779.715 1795.12 778.491L1922.4 650.39C1897.1 630.999 1866.16 620.397 1834.28 620.192V620.223Z" fill="white"/>
<path d="M1946.87 652.072L1807.36 790.759L1918.33 901.727C1929.5 895.316 1939.9 887.648 1949.32 878.873C1978.4 848.132 1994.41 807.294 1993.95 764.978C1993.49 722.662 1976.61 682.178 1946.87 652.072V652.072Z" fill="#808080"/>
<path d="M1915.85 913.966C1914.02 914.065 1912.19 913.751 1910.49 913.046C1908.8 912.342 1907.28 911.265 1906.06 909.896L1795.09 798.928C1793.56 797.705 1792.32 796.152 1791.48 794.386C1790.63 792.62 1790.19 790.685 1790.19 788.725C1790.19 786.765 1790.63 784.831 1791.48 783.064C1792.32 781.298 1793.56 779.746 1795.09 778.522L1933.78 642.282C1935.12 640.263 1936.94 638.606 1939.07 637.46C1941.21 636.314 1943.59 635.714 1946.02 635.714C1948.44 635.714 1950.83 636.314 1952.96 637.46C1955.1 638.606 1956.91 640.263 1958.25 642.282C1974.54 658.235 1987.47 677.275 1996.3 698.289C2005.13 719.303 2009.68 741.868 2009.68 764.662C2009.68 787.456 2005.13 810.021 1996.3 831.035C1987.47 852.049 1974.54 871.09 1958.25 887.042C1948.65 897.229 1937.66 906.014 1925.61 913.14C1922.58 914.669 1919.07 914.965 1915.82 913.966H1915.85ZM1826.11 788.343L1918.3 880.525C1924.64 876.081 1930.64 871.172 1936.26 865.84C1963.36 838.815 1978.62 802.138 1978.69 763.867C1978.75 729.617 1966.27 696.53 1943.6 670.858L1826.11 788.343Z" fill="white"/>
<path d="M1742.07 896.037C1731.02 885.66 1716.43 879.884 1701.27 879.884C1686.11 879.884 1671.52 885.66 1660.47 896.037L1290.92 1264.77L1352.11 1326.78L1742.9 984.12C1748.86 978.408 1753.58 971.537 1756.79 963.929C1759.99 956.322 1761.6 948.139 1761.53 939.885C1761.45 931.63 1759.68 923.479 1756.34 915.933C1752.99 908.387 1748.14 901.606 1742.07 896.006V896.037Z" fill="#808080"/>
<path d="M1348.83 1341.5C1345.18 1341.41 1341.69 1339.96 1339.04 1337.43L1277.03 1275.41C1274.38 1272.68 1272.9 1269.02 1272.9 1265.21C1272.9 1261.4 1274.38 1257.75 1277.03 1255.01L1646.61 887.042C1657.26 876.409 1670.85 869.22 1685.63 866.407C1700.41 863.594 1715.7 865.286 1729.51 871.265C1743.31 877.243 1755 887.232 1763.07 899.936C1771.13 912.639 1775.19 927.472 1774.72 942.51C1774.29 952.718 1771.84 962.738 1767.49 971.984C1763.15 981.23 1757 989.516 1749.41 996.358L1358.62 1339.02C1355.78 1341.03 1352.29 1341.91 1348.83 1341.47V1341.5ZM1305.6 1264.77L1346.39 1306.38L1729.83 972.677C1739.32 964.416 1744.98 952.607 1745.34 940.032C1745.71 927.458 1740.75 915.158 1731.48 906.592C1722.92 898.067 1711.33 893.28 1699.25 893.28C1687.17 893.28 1675.58 898.067 1667.02 906.592L1305.6 1264.77Z" fill="white"/>
<path d="M1004.55 1684.96C1003.5 1686.38 1002.94 1688.09 1002.94 1689.85C1002.94 1691.62 1003.5 1693.33 1004.55 1694.75L1020.86 1765.73C1021.51 1769.91 1020.89 1774.18 1019.08 1778C1017.27 1781.82 1014.35 1785.01 1010.7 1787.15C1007.06 1789.27 1002.85 1790.19 998.657 1789.77C994.468 1789.34 990.521 1787.6 987.385 1784.79L875.621 1677.1L1224.01 1325.96H1344.76L1426.36 1407.55C1299.08 1518.84 1157.15 1612.18 1004.55 1684.96V1684.96Z" fill="#808080"/>
<path d="M997.205 1804.89C987.965 1804.71 978.848 1800.91 972.729 1794.28L865.861 1687.41C864.33 1686.18 863.094 1684.63 862.245 1682.86C861.396 1681.1 860.955 1679.16 860.955 1677.2C860.955 1675.24 861.396 1673.31 862.245 1671.54C863.094 1669.78 864.33 1668.22 865.861 1667L1216.66 1315.37C1218.63 1313.28 1221.19 1311.86 1224.01 1311.3H1345.56C1348.73 1310.18 1352.18 1310.18 1355.35 1311.3L1436.95 1392.9C1438.5 1394.33 1439.68 1396.12 1440.39 1398.1C1441.1 1400.09 1441.31 1402.22 1441.02 1404.31C1441.07 1406.34 1440.66 1408.35 1439.81 1410.19C1438.96 1412.04 1437.7 1413.66 1436.12 1414.93L1429.6 1420.65C1301.81 1527.19 1161.21 1617.36 1011.06 1689.06L1026.58 1755.14C1027.78 1760.24 1027.82 1765.54 1026.71 1770.66C1025.6 1775.78 1023.36 1780.58 1020.16 1784.73C1016.95 1788.87 1012.86 1792.24 1008.19 1794.61C1003.51 1796.97 998.372 1798.25 993.136 1798.37L997.205 1804.89ZM897.679 1676.79L993.931 1773.87C994.828 1774.67 995.988 1775.11 997.19 1775.11C998.391 1775.11 999.551 1774.67 1000.45 1773.87C1001.05 1773.04 1001.37 1772.03 1001.37 1771.01C1001.37 1769.98 1001.05 1768.98 1000.45 1768.15L984.141 1697.17C982.856 1692.07 983.372 1686.69 985.603 1681.93C987.833 1677.18 991.641 1673.34 996.379 1671.07C1142.48 1600.33 1279.46 1512.11 1404.3 1408.35L1337.39 1341.44H1228.07L897.679 1676.79Z" fill="white"/>
<path d="M791.606 1760.83L873.203 1679.24L998.857 1804.89L798.98 1791.03C795.548 1790.76 792.289 1789.42 789.668 1787.19C787.046 1784.95 785.197 1781.95 784.382 1778.61C783.568 1775.26 783.831 1771.75 785.134 1768.56C786.437 1765.37 788.713 1762.68 791.637 1760.87L791.606 1760.83Z" fill="#808080"/>
<path d="M1001.27 1817.13L802.193 1803.27C790.383 1802.17 780.226 1794.09 776.065 1783.29C771.904 1772.49 774.443 1759.67 782.612 1751.04L864.209 1669.45C866.947 1666.8 870.606 1665.32 874.413 1665.32C878.22 1665.32 881.878 1666.8 884.616 1669.45L1009.44 1794.27C1011.17 1796.64 1012.1 1799.5 1012.1 1802.43C1012.1 1805.36 1011.17 1808.21 1009.44 1810.58C1007.56 1813.63 1004.67 1815.94 1001.27 1817.1V1817.13ZM802.193 1771.45L965.356 1782.07L875.621 1698.02L802.193 1771.45Z" fill="white"/>
<path d="M1356.18 1335.81L1191.36 1361.11L1286.82 1266.48L1356.18 1335.81Z" fill="#808080"/>
<path d="M1191.36 1376.56C1188.62 1376.63 1185.92 1375.9 1183.6 1374.44C1181.28 1372.99 1179.43 1370.89 1178.3 1368.39C1176.56 1366.03 1175.62 1363.17 1175.62 1360.24C1175.62 1357.31 1176.56 1354.45 1178.3 1352.09L1272.93 1256.63C1275.8 1253.93 1279.59 1252.43 1283.53 1252.43C1287.47 1252.43 1291.26 1253.93 1294.13 1256.63L1363.52 1325.96C1364.91 1328.16 1365.64 1330.7 1365.64 1333.3C1365.64 1335.9 1364.91 1338.44 1363.52 1340.64C1362.84 1343.32 1361.4 1345.75 1359.38 1347.63C1357.35 1349.51 1354.83 1350.77 1352.11 1351.26L1188.94 1376.56H1191.36ZM1286.82 1287.62L1233.8 1340.64L1325.18 1326.78L1286.82 1287.62Z" fill="white"/>
<path d="M1356.18 1335.75L1241.14 1350.43C1238.06 1351.13 1234.84 1350.82 1231.95 1349.54C1229.06 1348.27 1226.67 1346.1 1225.11 1343.35C1223.55 1340.6 1222.93 1337.43 1223.32 1334.29C1223.71 1331.16 1225.1 1328.24 1227.28 1325.96L1286.85 1266.39L1356.18 1335.75Z" fill="#808080"/>
<path d="M1237.87 1365.98C1232.53 1365.92 1227.31 1364.46 1222.73 1361.74C1218.14 1359.01 1214.36 1355.12 1211.77 1350.46C1208.65 1344.88 1207.44 1338.43 1208.33 1332.1C1209.21 1325.76 1212.14 1319.89 1216.66 1315.37L1276.23 1255.8C1279.1 1253.11 1282.89 1251.6 1286.83 1251.6C1290.77 1251.6 1294.56 1253.11 1297.43 1255.8L1366.79 1325.16C1368.85 1327.12 1370.31 1329.63 1370.97 1332.39C1371.63 1335.15 1371.48 1338.05 1370.53 1340.73C1369.59 1343.41 1367.88 1345.75 1365.62 1347.48C1363.37 1349.21 1360.66 1350.24 1357.83 1350.46L1243.62 1365.15L1237.87 1365.98ZM1237.87 1335.78L1324.36 1325.16L1286.02 1286.83L1237.07 1335.78H1237.87ZM1947.67 745.907C1946.13 743.333 1943.7 741.412 1940.84 740.51C1937.98 739.607 1934.89 739.786 1932.16 741.012C1930.81 741.696 1929.61 742.645 1928.63 743.801C1927.65 744.957 1926.92 746.298 1926.47 747.743C1925.56 750.66 1925.84 753.818 1927.26 756.524C1932.98 768.548 1931.39 782.774 1923.19 793.238C1922.17 794.246 1921.38 795.454 1920.85 796.787C1920.32 798.119 1920.08 799.546 1920.13 800.978C1920.16 803.848 1921.25 806.605 1923.19 808.719C1925.29 809.545 1927.62 809.545 1929.71 808.719C1931.61 809.196 1933.6 809.144 1935.48 808.566C1937.35 807.989 1939.02 806.91 1940.33 805.445C1947.04 797.22 1951.3 787.262 1952.6 776.721C1953.9 766.18 1952.19 755.487 1947.67 745.877V745.907Z" fill="white"/>
</svg>
